<svg width="48" height="48" viewBox="0 0 48 48" fill="none" xmlns="http://www.w3.org/2000/svg">
<path d="M18.5623 24C18.5623 25.3924 19.1154 26.7277 20.1 27.7123C21.0845 28.6969 22.4199 29.25 23.8123 29.25C25.2047 29.25 26.54 28.6969 27.5246 27.7123C28.5092 26.7277 29.0623 25.3924 29.0623 24C29.0623 22.6076 28.5092 21.2723 27.5246 20.2877C26.54 19.3031 25.2047 18.75 23.8123 18.75C22.4199 18.75 21.0845 19.3031 20.1 20.2877C19.1154 21.2723 18.5623 22.6076 18.5623 24ZM44.1654 22.7906C39.7217 13.4297 33.0045 8.71875 23.9998 8.71875C14.9904 8.71875 8.27791 13.4297 3.83416 22.7953C3.65592 23.1727 3.56348 23.5849 3.56348 24.0023C3.56348 24.4197 3.65592 24.832 3.83416 25.2094C8.27791 34.5703 14.9951 39.2812 23.9998 39.2812C33.0092 39.2812 39.7217 34.5703 44.1654 25.2047C44.5263 24.4453 44.5263 23.5641 44.1654 22.7906ZM23.8123 32.25C19.256 32.25 15.5623 28.5562 15.5623 24C15.5623 19.4438 19.256 15.75 23.8123 15.75C28.3685 15.75 32.0623 19.4438 32.0623 24C32.0623 28.5562 28.3685 32.25 23.8123 32.25Z" fill="white"/>
</svg>
