<svg width="76" height="44" viewBox="0 0 76 44" fill="none" xmlns="http://www.w3.org/2000/svg">
<path d="M22.4236 17.6124C21.1531 25.3582 19.4253 33.4584 17.2909 37.2048C15.0041 41.2549 11.0911 43.0268 6.72075 41.7611C-0.444611 39.7361 -1.8167 31.7877 2.29957 27.0289C6.16175 22.6244 11.1928 26.9276 9.56657 27.4845C2.35039 30.0158 3.87493 41.6093 8.95675 39.4323C13.8353 37.3566 17.4942 8.2465 17.9516 0.804429C18.104 -0.461229 24.1514 -0.461229 24.5579 2.4751C25.8284 6.22145 28.8775 19.3843 29.5381 27.2314C33.9085 19.0805 38.9395 4.29765 40.464 0.956308C40.8706 -0.461229 48.1376 0.753803 47.6294 4.14577C46.8671 9.76529 41.3787 35.8379 41.9377 41.2042C42.2427 44.6468 36.8051 41.6599 36.6018 37.9135C36.4494 35.3316 37.5166 27.3833 38.5837 19.3843C35.992 25.257 33.0954 31.079 30.402 33.9647C28.4201 36.0404 25.2694 35.6353 24.0497 34.6735C23.5416 34.2684 23.4399 33.8128 23.6432 33.4078C24.2022 31.2309 23.5924 24.4469 22.4236 17.6124ZM73.9125 5.46205C79.2993 12.1954 73.5568 25.7126 64.7144 24.9532C71.9814 26.7757 71.4733 42.3687 60.649 43.2293C58.2605 43.3812 55.7705 42.7737 53.6361 41.3561C52.4673 40.7486 51.4001 39.483 51.5525 37.1541C51.9083 32.0409 55.3639 11.7397 55.7705 6.72771C55.8721 5.10767 62.5293 5.66456 62.0719 9.05652C61.767 11.5372 60.7506 17.0049 59.7343 22.7763C71.27 26.0163 73.0994 3.94326 63.0374 2.77886C58.0065 2.17134 51.6034 6.72771 52.4673 15.8911C52.5689 16.853 45.8609 14.8786 46.9281 10.2209C49.6723 -1.42313 67.7127 -2.3344 73.9125 5.46205ZM56.8885 40.7486C62.8342 42.318 67.6111 26.6239 60.4965 25.4595C60.09 25.3582 59.6835 25.3076 59.2769 25.3076C58.0573 31.9396 56.8885 38.4704 56.6344 40.698C56.736 40.698 56.7868 40.7486 56.8885 40.7486Z" fill="#F2F4F7"/>
</svg>
